<svg width="140" height="230" viewBox="-70 -110 140 230" xmlns="http://www.w3.org/2000/svg">
  <rect x="-6" y="-98" width="12" height="18" rx="2" fill="#f0ece2" stroke="#b8a88a" stroke-width="0.8"/>
  <path d="M-6,-98 L-18,-82 L-6,-84 Z" fill="#f0ece2" stroke="#b8a88a" stroke-width="0.8"/>
  <path d="M6,-98 L18,-82 L6,-84 Z" fill="#f0ece2" stroke="#b8a88a" stroke-width="0.8"/>
  <path d="M-28,-84 L-36,18 L36,18 L28,-84 L18,-82 L6,-84 L0,-78 L-6,-84 L-18,-82 Z" fill="#f5f0e8" stroke="#c8b898" stroke-width="0.9"/>
  <rect x="-5" y="-80" width="10" height="66" rx="1" fill="none" stroke="#c8b898" stroke-width="0.6" stroke-dasharray="2,2"/>
  <line x1="-3" y1="-72" x2="3" y2="-72" stroke="#b8a878" stroke-width="0.7"/>
  <circle cx="0" cy="-68" r="1.5" fill="none" stroke="#b8a878" stroke-width="0.6"/>
  <line x1="-3" y1="-62" x2="3" y2="-62" stroke="#b8a878" stroke-width="0.7"/>
  <circle cx="0" cy="-58" r="1.5" fill="none" stroke="#b8a878" stroke-width="0.6"/>
  <line x1="-3" y1="-52" x2="3" y2="-52" stroke="#b8a878" stroke-width="0.7"/>
  <circle cx="0" cy="-48" r="1.5" fill="none" stroke="#b8a878" stroke-width="0.6"/>
  <line x1="-3" y1="-42" x2="3" y2="-42" stroke="#b8a878" stroke-width="0.7"/>
  <circle cx="0" cy="-38" r="1.5" fill="none" stroke="#b8a878" stroke-width="0.6"/>
  <line x1="-3" y1="-30" x2="3" y2="-30" stroke="#b8a878" stroke-width="0.7"/>
  <circle cx="0" cy="-26" r="1.5" fill="none" stroke="#b8a878" stroke-width="0.6"/>
  <line x1="-3" y1="-18" x2="3" y2="-18" stroke="#b8a878" stroke-width="0.7"/>
  <circle cx="0" cy="-14" r="1.5" fill="none" stroke="#b8a878" stroke-width="0.6"/>
  <path d="M-22,-70 Q-18,-64 -22,-58" fill="none" stroke="#c8b898" stroke-width="0.6"/>
  <path d="M22,-70 Q18,-64 22,-58" fill="none" stroke="#c8b898" stroke-width="0.6"/>
  <path d="M-28,-84 L-60,-46 L-50,-42 L-22,-72 Z" fill="#f5f0e8" stroke="#c8b898" stroke-width="0.9"/>
  <path d="M28,-84 L60,-46 L50,-42 L22,-72 Z" fill="#f5f0e8" stroke="#c8b898" stroke-width="0.9"/>
  <rect x="-60" y="-48" width="12" height="6" rx="1" fill="#ede8d8" stroke="#b8a888" stroke-width="0.7"/>
  <rect x="48" y="-48" width="12" height="6" rx="1" fill="#ede8d8" stroke="#b8a888" stroke-width="0.7"/>
  <path d="M-36,18 L-32,26 L32,26 L36,18 Z" fill="#ede8d8" stroke="#c8b898" stroke-width="0.8"/>
  <rect x="-28" y="26" width="56" height="8" rx="1" fill="#1a1a1a" stroke="#333" stroke-width="0.8"/>
  <rect x="-20" y="27" width="40" height="5" rx="1" fill="#2a2a2a" stroke="#444" stroke-width="0.5"/>
  <rect x="-5" y="27.5" width="10" height="4" rx="0.5" fill="#8a7a6a" stroke="#6a5a4a" stroke-width="0.6"/>
  <line x1="0" y1="27.5" x2="0" y2="31.5" stroke="#6a5a4a" stroke-width="0.7"/>
  <path d="M-28,34 L-32,110 L-4,110 L0,34 Z" fill="#1c1c1c" stroke="#333" stroke-width="0.8"/>
  <path d="M28,34 L32,110 L4,110 L0,34 Z" fill="#1c1c1c" stroke="#333" stroke-width="0.8"/>
  <line x1="-16" y1="40" x2="-18" y2="108" stroke="#2e2e2e" stroke-width="0.6"/>
  <line x1="16" y1="40" x2="18" y2="108" stroke="#2e2e2e" stroke-width="0.6"/>
  <rect x="-32" y="104" width="28" height="6" rx="1" fill="#222" stroke="#3a3a3a" stroke-width="0.7"/>
  <rect x="4" y="104" width="28" height="6" rx="1" fill="#222" stroke="#3a3a3a" stroke-width="0.7"/>
</svg>
