<svg width="120" height="235" viewBox="-60 -110 120 235" xmlns="http://www.w3.org/2000/svg">
  <line x1="-10" y1="-100" x2="-14" y2="-78" stroke="#7a9ab5" stroke-width="2.5" stroke-linecap="round"/>
  <line x1="10" y1="-100" x2="14" y2="-78" stroke="#7a9ab5" stroke-width="2.5" stroke-linecap="round"/>
  <path d="M-20,-98 Q-24,-90 -26,-78 L26,-78 Q24,-90 20,-98 Z" fill="#7a9ab5" stroke="#5a7a95" stroke-width="0.9"/>
  <path d="M-20,-98 Q-10,-92 0,-96 Q10,-92 20,-98" fill="none" stroke="#5a7a95" stroke-width="0.8"/>
  <rect x="-26" y="-78" width="52" height="6" rx="1" fill="#6a8aa5" stroke="#5a7a95" stroke-width="0.8"/>
  <path d="M-26,-72 L-52,110 L52,110 L26,-72 Z" fill="#8aacbf" stroke="#6a8aa5" stroke-width="0.9"/>
  <path d="M-22,-66 L-46,110" stroke="#7a9cb0" stroke-width="0.6" fill="none"/>
  <path d="M22,-66 L46,110" stroke="#7a9cb0" stroke-width="0.6" fill="none"/>
  <path d="M-10,-60 Q-6,10 -12,110" fill="none" stroke="#9abccc" stroke-width="0.6" stroke-dasharray="3,3"/>
  <path d="M10,-60 Q6,10 12,110" fill="none" stroke="#9abccc" stroke-width="0.6" stroke-dasharray="3,3"/>
  <path d="M0,-60 Q2,30 0,110" fill="none" stroke="#9abccc" stroke-width="0.5" stroke-dasharray="2,3"/>
  <path d="M-52,110 Q0,118 52,110" fill="none" stroke="#6a8aa5" stroke-width="1"/>
  <circle cx="-18" cy="-70" r="3" fill="#d6e4ef" stroke="#7a9ab5" stroke-width="0.7"/>
  <circle cx="18" cy="-70" r="3" fill="#d6e4ef" stroke="#7a9ab5" stroke-width="0.7"/>
  <circle cx="0" cy="-73" r="3" fill="#d6e4ef" stroke="#7a9ab5" stroke-width="0.7"/>
</svg>
